<?xml version="1.0" standalone="no"?><!DOCTYPE svg PUBLIC "-//W3C//DTD SVG 1.1//EN" "http://www.w3.org/Graphics/SVG/1.1/DTD/svg11.dtd">
<svg t="1656654717242" class="icon" viewBox="0 0 1024 1024" version="1.1"
    xmlns="http://www.w3.org/2000/svg"
    xmlns:xlink="http://www.w3.org/1999/xlink" width="200" height="200">
    <path d="M512 74.666667C270.933333 74.666667 74.666667 270.933333 74.666667 512S270.933333 949.333333 512 949.333333 949.333333 753.066667 949.333333 512 753.066667 74.666667 512 74.666667z" stroke-width="66" stroke='#333' fill='white' />
    <path fill="#333" d="m512,725.33333c-23.46667,0 -42.66667,-19.2 -42.66667,-42.66666l0,-128l-128,0c-23.46666,0 -42.66666,-19.2 -42.66666,-42.66667s19.2,-42.66667 42.66666,-42.66667l128,0l0,-128c0,-23.46666 19.2,-42.66666 42.66667,-42.66666s42.66667,19.2 42.66667,42.66666l0,128l128,0c23.46666,0 42.66666,19.2 42.66666,42.66667s-19.2,42.66667 -42.66666,42.66667l-128,0l0,128c0,23.46666 -19.2,42.66666 -42.66667,42.66666z"/>
</svg>