<?xml version="1.0" standalone="no"?><!DOCTYPE svg PUBLIC "-//W3C//DTD SVG 1.1//EN" "http://www.w3.org/Graphics/SVG/1.1/DTD/svg11.dtd">
<svg t="1656655564985" class="icon" viewBox="0 0 1024 1024" version="1.1"
    xmlns="http://www.w3.org/2000/svg"
    xmlns:xlink="http://www.w3.org/1999/xlink" width="200" height="200">
    <path d="M512 74.666667C270.933333 74.666667 74.666667 270.933333 74.666667 512S270.933333 949.333333 512 949.333333 949.333333 753.066667 949.333333 512 753.066667 74.666667 512 74.666667z" stroke-width="66" stroke='#333' fill='white' />
    <path d="m607.99997,746.66666c-10.66667,0 -21.33333,-4.26666 -29.86667,-12.8l-192,-192c-17.06666,-17.06666 -17.06666,-42.66666 0,-59.73333l192,-192c17.06667,-17.06667 42.66667,-17.06667 59.73334,0c17.06666,17.06667 17.06666,42.66667 0,59.73333l-162.13334,162.13334l162.13334,162.13333c17.06666,17.06667 17.06666,42.66667 0,59.73333c-8.53334,8.53334 -19.2,12.8 -29.86667,12.8z" fill="#333" />
</svg>